PathFileType	4	(X/Y/Z)	path1_10_0-575.trc
DataRate	CameraRate	NumFrames	NumMarkers	Units	OrigDataRate	OrigDataStartFrame	OrigNumFrames
30	30	5	22	m	30	71	575
Frame#	Time	Hip			RHip			RKnee			RAnkle			RBigToe			RSmallToe			RHeel			LHip			LKnee			LAnkle			LBigToe			LSmallToe			LHeel			Neck			Head			Nose			RShoulder			RElbow			RWrist			LShoulder			LElbow			LWrist		
		X1	Y1	Z1	X2	Y2	Z2	X3	Y3	Z3	X4	Y4	Z4	X5	Y5	Z5	X6	Y6	Z6	X7	Y7	Z7	X8	Y8	Z8	X9	Y9	Z9	X10	Y10	Z10	X11	Y11	Z11	X12	Y12	Z12	X13	Y13	Z13	X14	Y14	Z14	X15	Y15	Z15	X16	Y16	Z16	X17	Y17	Z17	X18	Y18	Z18	X19	Y19	Z19	X20	Y20	Z20	X21	Y21	Z21	X22	Y22	Z22
72	2.4	2.5401268560829413	0.8339305365629853	0.789472288123935	2.5398222274680475	0.7980777626226742	0.7122847605659172	2.5077460355041548	0.4683790260257042	0.7000540743346458	2.5539714977274603	0.10894509724688814	0.7074071803524824	2.38101316431108	0.030593126065045117	0.7063841880727859	2.4165444736577197	0.021814103047195478	0.6494816255556284	2.61485889427067	0.031037205101903234	0.7228824028014902	2.545241560547255	0.7936448557098925	0.8722304192266824	2.5537397018724723	0.4310354906189436	0.9016489499166696	2.570845855890644	0.10231888903621475	0.8726841075689841	2.408556623947901	0.015329727630991762	0.897388073304234	2.4235504385269664	0.03308940783915989	0.9467758111111132	2.6308607441450396	0.02905564878497305	0.8810919224320277	2.52935924044743	1.4714880736158449	0.8026099300728938	2.5101467640948907	1.71512068836861	0.7495065000086399	2.4009055903805403	1.6117043621917113	0.7829402850719623	2.5648341841212394	1.3645432412577279	0.6302233517897402	2.58535764769503	1.075656776393705	0.6076932389769583	2.566826928887945	0.8535283111424434	0.5988290799001645	2.573244668372001	1.3543831202792214	0.9346507807653017	2.6145393491464706	1.0737770738874794	0.9725337326543919	2.5981286753583865	0.82479711626866	0.9520510638784959
73	2.433333333333333	2.539903422399278	0.8341672199893213	0.7894319206764638	2.539708491233031	0.7982951605843683	0.7122449602607075	2.5075215360896976	0.4685681826738276	0.7001422591037212	2.5537756465819914	0.10934594563390486	0.7071642458408497	2.3804224775371314	0.030772688335845073	0.7061727006466257	2.4167695691299635	0.02134608463139623	0.6508409132319892	2.6143206355443596	0.031312045684976544	0.722857841215739	2.5452127965764237	0.7937683019578402	0.8721010084303045	2.553490732413792	0.4315581134984282	0.9003273534134935	2.5718570308589634	0.10167667316969503	0.8739197700816771	2.408972944265869	0.013607590338943928	0.8960530522763495	2.424294244289141	0.0329074486168271	0.947222989118615	2.6277728803230254	0.029821933468267583	0.8787283633622225	2.529518348661103	1.471505644744203	0.8023411206689655	2.510563063544891	1.7145772332422748	0.7478895444810212	2.401256061782693	1.6115037850118066	0.7819329801663635	2.5654862810594325	1.365190055470545	0.6310045642128128	2.5864173347092527	1.0754924570773454	0.609486169965986	2.566795761781558	0.8538838840259854	0.5988100914035904	2.5733174720317247	1.3544381647298704	0.9347529472980325	2.614700421073478	1.0737465328159046	0.972328360588438	2.594946772859929	0.8249080963401109	0.9518175558442776
74	2.466666666666667	2.539462261469967	0.8345031080097132	0.7894009200896495	2.5393061872566127	0.7986731059220037	0.7119797009473174	2.5073325891371367	0.46873683505582353	0.7001712937480107	2.5537000053648624	0.10971979556793855	0.7068751236942032	2.3799134292052067	0.03060964088552216	0.7058848113546884	2.4168355182064176	0.021028970464017104	0.6520283410774963	2.614077814260516	0.031533529091610696	0.7230714616021406	2.5451508465574175	0.7939853610911535	0.8718629038131764	2.553121944929303	0.4322039063289136	0.8981097526889454	2.5722107127854454	0.10142849660663217	0.8744024423425106	2.409099977425529	0.01235510985738162	0.8950157533184875	2.4258619408917017	0.03243387000989052	0.9478391414339015	2.6248350964494884	0.030683261086774268	0.8764030887612407	2.5297760555095277	1.4714435655753746	0.8021499443758233	2.510872044085046	1.714118674874965	0.7461831131790023	2.4017142939188902	1.61138693221873	0.7808264176089988	2.566021533829865	1.3654200504928986	0.6309533113256293	2.587504059417309	1.0753446933312172	0.6112263184543967	2.566744319026881	0.8542227207860812	0.59845870778148	2.57338664625892	1.3544460810637975	0.9348762579436912	2.6150249466477358	1.073701311146978	0.9720110601512056	2.5915829468319846	0.8248224924665972	0.951661962943208
75	2.5	2.538760391478505	0.8349444559065499	0.7893411721672803	2.538368623572186	0.7993528553466002	0.7113440507185753	2.5071761929278398	0.4689416561079591	0.700135334129372	2.553782480139898	0.1099394786073453	0.7066431513839202	2.379346593813158	0.02997853901065354	0.7054127527087157	2.4162814237838037	0.021203905330492143	0.6526340775144511	2.614394679575942	0.03156322629437922	0.7236798796649838	2.545007438840392	0.7943017885513007	0.8713828526691831	2.552663501730142	0.43296314658259333	0.8949783257176026	2.571696909081244	0.10171516558661894	0.8737783832902007	2.4089851215897777	0.011905985329715997	0.8949185702986431	2.4281332046650554	0.0316279401073691	0.948597767969146	2.6225519291150445	0.0315146616797421	0.8743971877745922	2.5301402886938247	1.471315013565913	0.8020843917143448	2.510960672431798	1.71389706779852	0.7447480507168207	2.402244247810393	1.6112766864068508	0.7799189733992861	2.566371702037218	1.3654439267863243	0.630488653368132	2.5868864762375248	1.0755525771257997	0.610228239983382	2.5666396161834673	0.8545041110942704	0.5978335777716038	2.573479116677401	1.3544205835526908	0.9349961363033814	2.615500408846622	1.07363767838444	0.9716191591753494	2.5886667404649564	0.8245623847489159	0.9516916180223266
76	2.533333333333333	2.537960994304648	0.8354389083485929	0.7892485641078771	2.5370459369835157	0.8002786948775588	0.7104285428458866	2.5070369190558583	0.46927306276918046	0.7000493682778517	2.5541031775486625	0.10991038553548077	0.7066172098085622	2.378586891016109	0.02885945362927516	0.7046357984018619	2.4149018112362985	0.022092322545239802	0.652531284281687	2.6155159611854057	0.03127269048360205	0.7248599254652288	2.544832474513568	0.7947178630668498	0.8707508850360123	2.552176264184296	0.4337981805425868	0.8916925402876134	2.570670944123276	0.10238867612823851	0.872425764186386	2.4088488484051074	0.012173995867134276	0.8958372722605966	2.4306789937589497	0.030581812960262852	0.9494204653029186	2.6211033603853435	0.03227318093115797	0.8727944909482426	2.530578336356568	1.4711744835475504	0.8020988507537361	2.5108778720406573	1.7139474735954372	0.7437506113349084	2.4028063917539018	1.6111213913461535	0.7793680954895222	2.5665380675857796	1.3654387500805794	0.6299617883192392	2.584267070508496	1.0761762744959946	0.6060535753788497	2.5664396293944454	0.8547123560777953	0.5970313753371492	2.573642553206271	1.3544291736326863	0.9350679450835055	2.6160524118900086	1.0735676991034535	0.9712330815326825	2.58658926047394	0.8242151937274723	0.951896685018532
